<svg width="29" height="30" viewBox="0 0 29 30" fill="none" xmlns="http://www.w3.org/2000/svg">
<path d="M24.9382 23.8618L20.8645 19.8002C22.1789 18.1257 22.892 16.058 22.8894 13.9294C22.8894 12.0336 22.3272 10.1805 21.274 8.60422C20.2208 7.02798 18.7238 5.79945 16.9724 5.07398C15.221 4.34851 13.2937 4.1587 11.4344 4.52854C9.57512 4.89838 7.86723 5.81126 6.52675 7.15175C5.18626 8.49223 4.27338 10.2001 3.90354 12.0594C3.5337 13.9187 3.72351 15.846 4.44898 17.5974C5.17445 19.3488 6.40298 20.8458 7.97922 21.899C9.55547 22.9522 11.4086 23.5144 13.3044 23.5144C15.433 23.517 17.5007 22.8039 19.1752 21.4895L23.2368 25.5632C23.3482 25.6755 23.4807 25.7646 23.6267 25.8254C23.7727 25.8862 23.9293 25.9176 24.0875 25.9176C24.2457 25.9176 24.4023 25.8862 24.5483 25.8254C24.6943 25.7646 24.8268 25.6755 24.9382 25.5632C25.0505 25.4518 25.1396 25.3193 25.2004 25.1733C25.2612 25.0273 25.2926 24.8707 25.2926 24.7125C25.2926 24.5543 25.2612 24.3977 25.2004 24.2517C25.1396 24.1057 25.0505 23.9732 24.9382 23.8618ZM6.11561 13.9294C6.11561 12.5076 6.53723 11.1177 7.32714 9.93551C8.11705 8.75333 9.23978 7.83193 10.5533 7.28783C11.8669 6.74373 13.3123 6.60136 14.7068 6.87874C16.1013 7.15612 17.3822 7.84079 18.3876 8.84615C19.3929 9.85152 20.0776 11.1324 20.355 12.5269C20.6324 13.9214 20.49 15.3668 19.9459 16.6804C19.4018 17.994 18.4804 19.1167 17.2982 19.9066C16.116 20.6965 14.7262 21.1181 13.3044 21.1181C11.3978 21.1181 9.5693 20.3607 8.22115 19.0126C6.873 17.6644 6.11561 15.8359 6.11561 13.9294Z" fill="#FFFDFD"/>
</svg>
