<svg width="49" height="45" viewBox="0 0 49 45" fill="none" xmlns="http://www.w3.org/2000/svg">
<path d="M20.2 41.7C21.3874 41.7 22.35 40.7374 22.35 39.55C22.35 38.3626 21.3874 37.4 20.2 37.4C19.0126 37.4 18.05 38.3626 18.05 39.55C18.05 40.7374 19.0126 41.7 20.2 41.7Z" stroke="#FFFDFD" stroke-width="5" stroke-linecap="round" stroke-linejoin="round"/>
<path d="M37.4 41.7C38.5874 41.7 39.55 40.7374 39.55 39.55C39.55 38.3626 38.5874 37.4 37.4 37.4C36.2126 37.4 35.25 38.3626 35.25 39.55C35.25 40.7374 36.2126 41.7 37.4 41.7Z" stroke="#FFFDFD" stroke-width="5" stroke-linecap="round" stroke-linejoin="round"/>
<path d="M3 3H10.525C10.525 3 11.4128 6.93112 11.9817 9.45C13.1184 14.4831 14.6796 21.3958 15.5955 25.4514C16.0382 27.4117 17.7791 28.8 19.7889 28.8H38.2508C40.2662 28.8 42.0111 27.4001 42.4482 25.4329L46 9.45" stroke="#FFFDFD" stroke-width="5" stroke-linecap="round" stroke-linejoin="round"/>
<path d="M46 9.45001H12.675" stroke="#FFFDFD" stroke-width="5" stroke-linecap="round" stroke-linejoin="round"/>
</svg>
