<svg width="53" height="53" viewBox="0 0 53 53" fill="none" xmlns="http://www.w3.org/2000/svg">
<path d="M22.0833 46.375H30.9167C30.9167 48.8042 28.9292 50.7917 26.5 50.7917C24.0708 50.7917 22.0833 48.8042 22.0833 46.375ZM46.375 41.9584V44.1667H6.625V41.9584L11.0417 37.5417V24.2917C11.0417 17.4459 15.4583 11.4834 22.0833 9.49585V8.83335C22.0833 6.40419 24.0708 4.41669 26.5 4.41669C28.9292 4.41669 30.9167 6.40419 30.9167 8.83335V9.49585C37.5417 11.4834 41.9583 17.4459 41.9583 24.2917V37.5417L46.375 41.9584ZM37.5417 24.2917C37.5417 18.1084 32.6833 13.25 26.5 13.25C20.3167 13.25 15.4583 18.1084 15.4583 24.2917V39.75H37.5417V24.2917Z" fill="white"/>
</svg>
