<svg width="29" height="29" viewBox="0 0 29 29" fill="none" xmlns="http://www.w3.org/2000/svg">
<path d="M28.6624 8.50131C28.6448 7.29254 28.4213 6.09335 27.9933 4.96283C27.2444 3.03231 25.7195 1.50577 23.789 0.758476C22.6728 0.33852 21.4928 0.113372 20.2984 0.0878236C18.7623 0.0191616 18.2753 0 14.3759 0C10.4765 0 9.97675 1.07073e-07 8.45181 0.0878236C7.25901 0.113372 6.07898 0.33852 4.96282 0.758476C3.0323 1.50577 1.50577 3.03231 0.758475 4.96283C0.338519 6.07898 0.111775 7.25901 0.0894202 8.45181C0.0207583 9.98952 0 10.4765 0 14.3759C0 18.2753 -1.1897e-08 18.7735 0.0894202 20.3C0.113372 21.4944 0.338519 22.6728 0.758475 23.7922C1.50737 25.7211 3.0323 27.2476 4.96442 27.9949C6.07579 28.4293 7.25582 28.6752 8.45341 28.7135C9.99112 28.7821 10.4781 28.8029 14.3775 28.8029C18.2769 28.8029 18.7767 28.8029 20.3016 28.7135C21.4944 28.6895 22.6744 28.4644 23.7922 28.0444C25.7227 27.2955 27.2476 25.769 27.9965 23.8401C28.4165 22.7223 28.6416 21.5439 28.6656 20.3479C28.7342 18.8118 28.755 18.3248 28.755 14.4238C28.7518 10.5244 28.7518 10.0294 28.6624 8.50131ZM14.3663 21.7499C10.2881 21.7499 6.98436 18.4461 6.98436 14.3679C6.98436 10.2897 10.2881 6.98596 14.3663 6.98596C18.4413 6.98596 21.7483 10.2897 21.7483 14.3679C21.7483 18.4461 18.4413 21.7499 14.3663 21.7499ZM22.0421 8.43425C21.0888 8.43425 20.3208 7.66459 20.3208 6.71291C20.3208 5.76122 21.0888 4.99157 22.0421 4.99157C22.9922 4.99157 23.7618 5.76122 23.7618 6.71291C23.7618 7.66459 22.9922 8.43425 22.0421 8.43425Z" fill="#FFFDFD"/>
<path d="M14.3663 19.1631C17.0146 19.1631 19.1615 17.0162 19.1615 14.3679C19.1615 11.7196 17.0146 9.57275 14.3663 9.57275C11.718 9.57275 9.57114 11.7196 9.57114 14.3679C9.57114 17.0162 11.718 19.1631 14.3663 19.1631Z" fill="#FFFDFD"/>
</svg>
