<svg width="71" height="71" viewBox="0 0 71 71" fill="none" xmlns="http://www.w3.org/2000/svg">
<path d="M64.8289 34.0297C64.4588 36.3138 63.694 38.5161 62.5687 40.538C62.0392 41.4965 59.4447 45.1471 58.6489 46.1115C54.2765 51.401 46.9547 57.5041 34.7101 63.4385C34.4503 63.5649 34.1613 63.6193 33.8733 63.5958C33.5853 63.5723 33.3089 63.4718 33.0731 63.3049C32.8372 63.138 32.6505 62.9107 32.5326 62.647C32.4147 62.3832 32.3698 62.0926 32.4026 61.8055L33.0239 56.229C33.0481 56.0178 33.0303 55.8038 32.9715 55.5994C32.9127 55.395 32.8141 55.2043 32.6813 55.0382C32.5485 54.8722 32.3841 54.734 32.1977 54.6317C32.0112 54.5294 31.8064 54.465 31.595 54.4422C17.1021 52.9186 5.91666 43.0141 5.91666 31.0211C5.91666 17.9748 19.1582 7.39581 35.4911 7.39581C51.3655 7.39581 64.3171 17.3861 65.036 29.9235C65.0567 30.2874 65.1129 31.45 65.0656 32.231C65.033 32.7044 64.965 33.3108 64.8289 34.0297ZM19.2292 35.8047V25.8558C19.2382 25.6515 19.2057 25.4474 19.1338 25.2559C19.0618 25.0645 18.9518 24.8896 18.8104 24.7418C18.669 24.594 18.4991 24.4764 18.311 24.396C18.1229 24.3157 17.9205 24.2742 17.716 24.2742C17.5114 24.2742 17.309 24.3157 17.1209 24.396C16.9328 24.4764 16.7629 24.594 16.6215 24.7418C16.4801 24.8896 16.3701 25.0645 16.2982 25.2559C16.2262 25.4474 16.1937 25.6515 16.2028 25.8558V37.3253C16.2028 38.1654 16.8832 38.8459 17.7174 38.8459H23.7672C24.1701 38.8459 24.5565 38.6858 24.8414 38.4009C25.1263 38.116 25.2863 37.7296 25.2863 37.3268C25.2863 36.9239 25.1263 36.5375 24.8414 36.2526C24.5565 35.9677 24.1701 35.8076 23.7672 35.8076H19.2292V35.8047ZM28.5597 38.8459C28.7154 38.8459 28.8695 38.8152 29.0133 38.7555C29.157 38.6958 29.2876 38.6084 29.3975 38.4982C29.5075 38.388 29.5946 38.2572 29.6538 38.1133C29.7131 37.9694 29.7435 37.8152 29.7431 37.6596V25.5245C29.7439 25.3686 29.7138 25.2141 29.6547 25.0698C29.5956 24.9256 29.5085 24.7944 29.3986 24.6839C29.2886 24.5734 29.1579 24.4857 29.014 24.4259C28.87 24.366 28.7156 24.3352 28.5597 24.3352H27.9C27.7441 24.3352 27.5898 24.366 27.4458 24.4259C27.3019 24.4857 27.1712 24.5734 27.0612 24.6839C26.9512 24.7944 26.8642 24.9256 26.8051 25.0698C26.746 25.2141 26.7159 25.3686 26.7167 25.5245V37.6596C26.7167 37.9734 26.8414 38.2744 27.0633 38.4963C27.2852 38.7182 27.5862 38.8429 27.9 38.8429L28.5597 38.8459ZM40.7865 25.8558V32.8641C40.7865 32.8641 34.7456 24.9476 34.6509 24.847C34.5038 24.6798 34.3212 24.5474 34.1166 24.4594C33.9119 24.3714 33.6902 24.33 33.4676 24.3382C33.0687 24.3647 32.6953 24.5434 32.4244 24.8374C32.1535 25.1314 32.0059 25.5182 32.0121 25.9179V37.3253C32.0031 37.5296 32.0355 37.7337 32.1075 37.9251C32.1795 38.1166 32.2895 38.2915 32.4309 38.4393C32.5723 38.5871 32.7421 38.7047 32.9302 38.7851C33.1183 38.8654 33.3208 38.9069 33.5253 38.9069C33.7298 38.9069 33.9323 38.8654 34.1204 38.7851C34.3085 38.7047 34.4783 38.5871 34.6197 38.4393C34.7611 38.2915 34.8711 38.1166 34.9431 37.9251C35.0151 37.7337 35.0475 37.5296 35.0385 37.3253V30.3614C35.0385 30.3614 41.1711 38.3429 41.2628 38.4287C41.5291 38.6831 41.887 38.8429 42.2864 38.8429C43.1266 38.8518 43.8129 38.1063 43.8129 37.2631V25.8558C43.8219 25.6515 43.7895 25.4474 43.7175 25.2559C43.6456 25.0645 43.5356 24.8896 43.3942 24.7418C43.2528 24.594 43.0829 24.4764 42.8948 24.396C42.7067 24.3157 42.5043 24.2742 42.2997 24.2742C42.0952 24.2742 41.8927 24.3157 41.7047 24.396C41.5166 24.4764 41.3467 24.594 41.2053 24.7418C41.0639 24.8896 40.9539 25.0645 40.8819 25.2559C40.8099 25.4474 40.7775 25.6515 40.7865 25.8558ZM55.1581 25.8558C55.1589 25.6564 55.1203 25.4588 55.0445 25.2744C54.9687 25.0899 54.8573 24.9222 54.7166 24.781C54.5759 24.6397 54.4086 24.5276 54.2245 24.4511C54.0403 24.3746 53.8429 24.3352 53.6434 24.3352H47.5937C47.3945 24.3356 47.1974 24.3753 47.0136 24.4519C46.8297 24.5286 46.6629 24.6408 46.5224 24.782C46.382 24.9232 46.2708 25.0908 46.1953 25.275C46.1197 25.4593 46.0812 25.6567 46.0819 25.8558V37.3253C46.0819 38.1654 46.7594 38.8459 47.5937 38.8459H53.6434C54.0463 38.8459 54.4327 38.6858 54.7176 38.4009C55.0025 38.116 55.1625 37.7296 55.1625 37.3268C55.1625 36.9239 55.0025 36.5375 54.7176 36.2526C54.4327 35.9677 54.0463 35.8076 53.6434 35.8076H49.1083V33.1096H53.6464C54.0493 33.1096 54.4357 32.9496 54.7206 32.6647C55.0055 32.3798 55.1655 31.9934 55.1655 31.5905C55.1655 31.1877 55.0055 30.8013 54.7206 30.5164C54.4357 30.2315 54.0493 30.0714 53.6464 30.0714H49.1083V27.3734H53.6464C54.4836 27.3734 55.1581 26.693 55.1581 25.8558Z" fill="#FFFDFD"/>
</svg>
