<svg width="257" height="256" viewBox="0 0 257 256" fill="none" xmlns="http://www.w3.org/2000/svg">
<path d="M144.88 180C144.88 183.165 143.942 186.258 142.184 188.889C140.425 191.52 137.927 193.571 135.003 194.782C132.079 195.993 128.862 196.31 125.759 195.693C122.655 195.075 119.804 193.551 117.566 191.314C115.329 189.076 113.805 186.225 113.187 183.121C112.57 180.018 112.887 176.801 114.098 173.877C115.309 170.953 117.36 168.455 119.991 166.696C122.622 164.938 125.716 164 128.88 164C133.123 164 137.193 165.686 140.194 168.686C143.194 171.687 144.88 175.757 144.88 180ZM236.88 128C236.88 149.36 230.546 170.241 218.679 188.002C206.812 205.762 189.944 219.605 170.21 227.779C150.475 235.953 128.76 238.092 107.81 233.925C86.8603 229.758 67.6165 219.472 52.5125 204.368C37.4084 189.263 27.1224 170.02 22.9552 149.07C18.788 128.12 20.9268 106.405 29.101 86.6702C37.2753 66.9358 51.1179 50.0685 68.8784 38.2013C86.6389 26.3341 107.52 20 128.88 20C157.514 20.0318 184.965 31.4205 205.212 51.6675C225.46 71.9146 236.848 99.3664 236.88 128ZM212.88 128C212.88 111.386 207.953 95.1458 198.723 81.3321C189.493 67.5184 176.374 56.7519 161.025 50.3941C145.676 44.0364 128.787 42.3729 112.492 45.614C96.198 48.8552 81.2306 56.8554 69.483 68.603C57.7354 80.3506 49.7352 95.318 46.494 111.612C43.2529 127.907 44.9164 144.796 51.2741 160.145C57.6319 175.494 68.3984 188.613 82.2121 197.843C96.0258 207.073 112.266 212 128.88 212C151.151 211.976 172.503 203.119 188.251 187.371C203.999 171.623 212.856 150.271 212.88 128ZM128.88 64C104.62 64 84.88 81.94 84.88 104V108C84.88 111.183 86.1443 114.235 88.3947 116.485C90.6452 118.736 93.6974 120 96.88 120C100.063 120 103.115 118.736 105.365 116.485C107.616 114.235 108.88 111.183 108.88 108V104C108.88 95.18 117.88 88 128.88 88C139.88 88 148.88 95.18 148.88 104C148.88 112.82 139.88 120 128.88 120C125.697 120 122.645 121.264 120.395 123.515C118.144 125.765 116.88 128.817 116.88 132V140C116.873 142.965 117.963 145.827 119.942 148.035C121.92 150.244 124.645 151.642 127.593 151.96C130.541 152.278 133.502 151.493 135.905 149.758C138.309 148.022 139.985 145.458 140.61 142.56C159.19 137.88 172.88 122.37 172.88 104C172.88 81.94 153.14 64 128.88 64Z" fill="#FFFDFD"/>
</svg>
