<svg width="51" height="51" viewBox="0 0 51 51" fill="none" xmlns="http://www.w3.org/2000/svg">
<path d="M25.5 50.625C22.0421 50.625 18.7851 49.9643 15.7292 48.6429C12.6732 47.3215 10.0118 45.5256 7.745 43.255C5.47444 40.99 3.67847 38.3286 2.35708 35.2708C1.03569 32.2149 0.375 28.9579 0.375 25.5C0.375 22.0328 1.03569 18.773 2.35708 15.7208C3.68033 12.6686 5.47631 10.009 7.745 7.74221C10.01 5.47538 12.6714 3.68126 15.7292 2.35987C18.7851 1.03662 22.0421 0.375 25.5 0.375C28.9673 0.375 32.227 1.03569 35.2792 2.35708C38.3314 3.68033 40.991 5.47631 43.2578 7.745C45.5246 10.0118 47.3187 12.6704 48.6401 15.7208C49.9634 18.773 50.625 22.0328 50.625 25.5C50.625 28.9579 49.9643 32.2149 48.6429 35.2708C47.3215 38.3268 45.5256 40.9882 43.255 43.255C40.9882 45.5237 38.3296 47.3197 35.2792 48.6429C32.227 49.9643 28.9673 50.625 25.5 50.625ZM25.5 47.8557C27.1378 45.7507 28.4889 43.684 29.5535 41.6554C30.6162 39.6268 31.4807 37.3562 32.147 34.8437H18.853C19.59 37.4977 20.4722 39.8389 21.4995 41.8675C22.5269 43.8962 23.8604 45.8922 25.5 47.8557ZM21.9462 47.4369C20.6434 45.9015 19.4542 44.0032 18.3785 41.7419C17.3027 39.4825 16.5025 37.1822 15.9776 34.8409H5.26879C6.86935 38.3138 9.13711 41.1613 12.0721 43.3834C15.0089 45.6056 18.2994 46.9568 21.9434 47.4369M29.051 47.4369C32.6951 46.9568 35.9855 45.6056 38.9223 43.3834C41.8592 41.1613 44.1269 38.3138 45.7256 34.8409H35.0224C34.3152 37.2176 33.4246 39.5365 32.3508 41.7977C31.275 44.0571 30.1751 45.9369 29.051 47.4369ZM4.12979 32.0493H15.3942C15.182 30.9047 15.0331 29.7889 14.9475 28.702C14.8582 27.6152 14.8135 26.5478 14.8135 25.5C14.8135 24.4522 14.8572 23.3848 14.9447 22.298C15.0322 21.2111 15.1811 20.0944 15.3914 18.948H4.13538C3.83201 19.9157 3.59472 20.9701 3.4235 22.1109C3.25228 23.2518 3.16667 24.3815 3.16667 25.5C3.16667 26.6204 3.25135 27.7501 3.42071 28.8891C3.59193 30.0299 3.82922 31.0833 4.13258 32.0493M18.1886 32.0493H32.8114C33.0235 30.9047 33.1724 29.8066 33.258 28.7551C33.3474 27.7054 33.392 26.6204 33.392 25.5C33.392 24.3796 33.3483 23.2946 33.2608 22.2449C33.1734 21.1934 33.0245 20.0953 32.8142 18.9508H18.1858C17.9755 20.0953 17.8266 21.1934 17.7392 22.2449C17.6517 23.2946 17.608 24.3796 17.608 25.5C17.608 26.6204 17.6517 27.7054 17.7392 28.7551C17.8266 29.8066 17.9783 30.9047 18.1886 32.0493ZM35.6058 32.0493H46.8674C47.1708 31.0815 47.4081 30.0281 47.5793 28.8891C47.7505 27.7501 47.8352 26.6204 47.8333 25.5C47.8333 24.3796 47.7487 23.2499 47.5793 22.1109C47.4081 20.9701 47.1708 19.9167 46.8674 18.9508H35.603C35.8152 20.0953 35.9641 21.2111 36.0497 22.298C36.139 23.3848 36.1837 24.4522 36.1837 25.5C36.1837 26.5478 36.14 27.6152 36.0525 28.702C35.965 29.7889 35.8161 30.9056 35.6058 32.052M35.0252 16.1591H45.7284C44.0925 12.6155 41.8517 9.76803 39.0061 7.61658C36.1586 5.46514 32.8412 4.09722 29.0538 3.51283C30.3566 5.22506 31.5281 7.18481 32.5685 9.39208C33.607 11.5975 34.4259 13.8532 35.0252 16.1591ZM18.853 16.1591H32.147C31.41 13.5386 30.5008 11.1694 29.4195 9.0515C28.3401 6.93169 27.0336 4.96264 25.5 3.14433C23.9683 4.96264 22.6618 6.93169 21.5805 9.0515C20.5011 11.1694 19.5919 13.5386 18.853 16.1591ZM5.27158 16.1591H15.9748C16.5741 13.8532 17.393 11.5975 18.4315 9.39208C19.4719 7.18481 20.6434 5.22413 21.9462 3.51004C18.1235 4.09629 14.7977 5.47351 11.9688 7.64171C9.1399 9.81176 6.90657 12.65 5.26879 16.1563" fill="#FFFDFD"/>
</svg>
